<svg version="1.1" id="Layer_1" xmlns="http://www.w3.org/2000/svg" xmlns:xlink="http://www.w3.org/1999/xlink" x="0px" y="0px"
	 width="100%" viewBox="0 0 800 800" enable-background="new 0 0 800 800" xml:space="preserve">
<path fill="#7eba00" opacity="1.000000" stroke="none"
	d="
M258.265076,295.888184
	C286.549622,295.783905 311.543854,303.465363 332.581299,322.382202
	C336.544312,325.945740 338.497772,329.620972 338.471649,335.247406
	C338.236389,385.905457 338.342072,436.565063 338.315247,487.224213
	C338.314392,488.816132 338.851105,490.538116 337.235229,492.568878
	C305.946747,460.796783 268.068268,455.230896 226.870758,465.726196
	C225.273773,463.692047 225.691803,461.962830 225.691010,460.347290
	C225.665695,409.188202 225.742996,358.028839 225.542801,306.870544
	C225.523743,301.999908 227.627808,300.627747 231.680527,299.748566
	C240.308777,297.876801 249.041580,296.850494 258.265076,295.888184
z"/>
<path fill="#7eba00" opacity="1.000000" stroke="none"
	d="
M391.833069,314.785583
	C395.447388,315.169647 398.657410,315.246277 401.706543,315.986206
	C408.738312,317.692444 414.294281,321.199310 415.914459,328.976257
	C417.461273,336.401031 414.731018,341.989716 408.186432,346.452606
	C413.986908,349.856537 417.804810,353.965332 417.464813,361.153198
	C417.003906,370.897156 411.291016,378.401062 401.726654,380.195709
	C390.997986,382.208832 380.143494,380.987244 369.346863,381.261505
	C366.686798,381.329071 365.940491,379.569763 365.942841,377.327820
	C365.963196,357.844360 366.016510,338.360901 366.033508,318.877441
	C366.036407,315.541077 367.908844,314.689178 370.872772,314.731262
	C377.699280,314.828156 384.527924,314.772919 391.833069,314.785583
M386.792542,368.668518
	C389.453522,368.625885 392.161804,368.881165 394.764038,368.468292
	C398.337860,367.901276 400.838745,365.678040 401.519897,362.012085
	C402.084137,358.975586 401.145355,356.319946 398.210052,354.873077
	C393.662781,352.631683 388.465607,352.292877 384.137970,354.004211
	C380.371246,355.493683 383.027039,360.298279 382.388885,363.562561
	C382.263794,364.202423 382.400482,364.890442 382.387146,365.555695
	C382.338196,367.992859 383.782928,368.714783 386.792542,368.668518
M383.008148,328.283051
	C381.802002,330.635864 382.421661,333.165314 382.385956,335.607300
	C382.288086,342.299622 383.140259,343.008575 389.863007,342.313171
	C391.015869,342.193939 392.171570,342.069580 393.311920,341.868073
	C397.451569,341.136597 399.750916,338.855194 399.767395,334.445953
	C399.784729,329.810455 396.973083,327.868805 392.961884,327.470764
	C389.864105,327.163391 386.677063,326.963470 383.008148,328.283051
z"/>
<path fill="#7eba00" opacity="1.000000" stroke="none"
	d="
M496.193726,339.550934
	C499.967773,323.722656 513.388245,313.674469 529.798828,314.096130
	C547.902771,314.561340 560.782654,325.080994 563.368652,341.490326
	C565.600647,355.653381 562.062500,368.061310 549.819946,375.985199
	C536.771057,384.430939 522.546082,384.613617 509.378815,375.948853
	C496.458405,367.446594 493.591003,354.509735 496.193726,339.550934
M526.939087,328.215088
	C520.763489,328.859558 516.136658,332.003571 513.867310,337.676544
	C511.117950,344.549255 511.011139,351.761292 514.056152,358.597992
	C518.669067,368.955139 533.324707,371.561951 541.598877,363.714355
	C547.509705,358.108246 549.221252,347.579010 545.684937,338.577728
	C542.687622,330.948334 537.799072,328.095154 526.939087,328.215088
z"/>
<path fill="#7eba00" opacity="1.000000" stroke="none"
	d="
M443.685364,379.603699
	C428.074524,373.553650 420.268463,359.101776 422.826324,341.510773
	C424.981750,326.687347 436.784332,316.006653 452.563385,314.576141
	C466.974823,313.269653 479.208221,317.411713 486.598267,330.386475
	C493.749237,342.941620 493.217194,355.974915 485.118652,368.112183
	C478.087006,378.650482 467.384735,382.132050 455.261993,381.820648
	C451.488281,381.723724 447.605316,381.432709 443.685364,379.603699
M468.458282,364.011902
	C474.762848,357.498413 475.765839,349.778168 473.751343,341.298798
	C471.838684,333.248230 466.130493,328.441833 457.807861,328.059906
	C449.101868,327.660370 443.320160,331.535797 440.453308,339.410400
	C439.215393,342.810699 439.215668,346.263641 439.282257,349.755157
	C439.414093,356.666870 441.568207,362.878082 448.051178,365.978607
	C454.661163,369.139923 461.605835,369.219757 468.458282,364.011902
z"/>
<path fill="#7eba00" opacity="1.000000" stroke="none"
	d="
M611.980957,339.888214
	C610.489807,341.898560 609.214722,343.632660 607.969788,345.325775
	C616.229065,356.505829 623.236267,368.289154 630.842651,379.827515
	C621.253662,383.934479 612.578552,381.407715 607.673401,373.619904
	C604.390686,368.408051 601.031555,363.244202 597.686096,358.072174
	C596.685364,356.525116 595.541016,355.092346 593.869263,354.199768
	C590.477234,352.388641 588.383789,353.460236 588.282410,357.354248
	C588.117859,363.678772 588.118591,370.011841 588.236816,376.337830
	C588.303589,379.910645 586.994690,381.416962 583.253723,381.336090
	C569.828613,381.045807 571.796936,382.881531 571.714172,370.053558
	C571.608948,353.733215 571.822327,337.409851 571.598267,321.091888
	C571.534485,316.448364 572.763062,314.563873 577.731567,314.680328
	C588.182007,314.925293 588.185852,314.689819 588.196472,325.375885
	C588.199890,328.873199 588.146729,332.372559 588.252136,335.866974
	C588.304138,337.589508 587.599670,339.859650 589.931458,340.595642
	C592.192322,341.309204 593.720520,339.709595 594.910828,338.050873
	C598.210510,333.452850 601.444153,328.806946 604.666870,324.154358
	C611.421448,314.402985 616.322144,312.598938 629.049072,315.687836
	C623.987793,324.245361 617.787170,331.724701 611.980957,339.888214
z"/>
<path fill="#e85400" opacity="1.000000" stroke="none"
	d="
M195.948395,359.325104
	C199.294296,378.075226 202.531281,396.404083 205.772644,414.732178
	C209.910583,438.130005 214.061264,461.525543 218.171783,484.928162
	C218.452560,486.526703 218.443848,488.176086 218.574402,489.861725
	C216.406052,489.923706 216.442352,488.286560 216.039856,487.175293
	C200.282028,443.667297 184.602600,400.130737 168.729034,356.665070
	C167.260941,352.645050 167.607590,350.319763 171.491867,348.139618
	C177.969345,344.503998 183.984131,340.008728 191.866165,337.507050
	C193.251785,344.965027 194.546616,351.934265 195.948395,359.325104
z"/>
<path fill="#f7a400" opacity="1.000000" stroke="none"
	d="
M221.204910,338.000000
	C221.205902,381.781281 221.205902,425.062561 221.205902,469.290863
	C218.441681,466.591095 218.504379,463.831055 218.077164,461.410095
	C210.309586,417.392517 202.666443,373.352905 194.847031,329.344604
	C194.099365,325.136719 195.140213,323.018890 199.230682,321.499756
	C204.844833,319.414734 210.432693,317.291016 216.118896,315.388489
	C219.953705,314.105408 221.349304,314.975983 221.252594,319.006866
	C221.104767,325.168091 221.207520,331.335327 221.204910,338.000000
z"/>
<path fill="#f7a400" opacity="1.000000" stroke="none"
	d="
M469.726868,446.264862
	C458.211121,433.513397 457.799286,413.224884 468.558899,400.654114
	C478.408386,389.146698 498.388275,386.593658 511.948853,395.435486
	C520.588440,401.068756 524.958008,409.311737 525.374390,419.702179
	C525.721924,428.372070 524.402832,436.300720 519.210632,443.758728
	C508.655518,458.920074 480.806091,459.045990 469.726868,446.264862
M511.735413,415.883789
	C507.685608,402.690887 494.352142,397.262756 482.959717,404.169006
	C475.587738,408.638031 472.011810,420.595062 475.061584,430.578644
	C478.638275,442.287109 489.902863,447.590424 501.155518,442.863495
	C510.194122,439.066650 514.627747,428.275085 511.735413,415.883789
z"/>
<path fill="#f7a400" opacity="1.000000" stroke="none"
	d="
M576.867676,419.557068
	C574.343262,423.156921 571.210388,425.591339 567.867554,427.896271
	C573.501892,436.726074 579.762390,444.826050 584.703064,453.862366
	C576.308044,457.098267 571.096191,455.585785 566.748291,448.940643
	C563.744446,444.349640 560.813416,439.711029 557.821045,435.112457
	C556.172363,432.578888 554.515686,429.716309 550.857300,430.584961
	C546.884338,431.528259 548.183716,435.045593 548.062195,437.655701
	C547.861206,441.972656 547.885376,446.305359 547.967957,450.628479
	C548.027405,453.743652 546.788635,455.049713 543.564758,455.187500
	C535.006836,455.553314 534.826660,455.525940 534.812866,447.026794
	C534.785522,430.224396 534.935425,413.419922 534.696106,396.620819
	C534.629089,391.920074 536.323364,390.383240 540.809082,390.679169
	C547.928650,391.148926 555.083862,390.237457 562.209351,391.474640
	C577.563782,394.140564 583.469666,405.050232 576.867676,419.557068
M561.814880,402.427643
	C551.011658,398.554565 548.001892,400.556946 548.053650,411.583313
	C548.059143,412.748657 548.174622,413.925201 548.054688,415.077362
	C547.597473,419.468567 549.572998,421.259125 553.872864,420.720520
	C555.517212,420.514526 557.198120,420.507751 558.812317,420.170654
	C562.937195,419.309265 565.763000,416.838013 566.556213,412.665710
	C567.322266,408.636292 566.481995,405.009521 561.814880,402.427643
z"/>
<path fill="#f7a400" opacity="1.000000" stroke="none"
	d="
M590.715393,418.999939
	C590.717834,410.837738 590.808105,403.174164 590.682739,395.514099
	C590.627380,392.132965 591.903748,390.675690 595.358398,390.710205
	C606.017761,390.816742 616.679565,390.842621 627.338501,390.723907
	C631.119141,390.681824 631.692932,392.510071 631.462341,395.749237
	C631.244080,398.816650 631.906982,401.758331 627.036133,401.442932
	C621.064209,401.056213 615.042847,401.500885 609.054810,401.271973
	C605.081909,401.120056 603.364319,402.350220 603.335876,406.618134
	C603.263123,417.550476 603.217651,417.671600 614.210449,417.680786
	C616.042725,417.682312 617.901917,417.889099 619.702026,417.649750
	C624.606506,416.997681 625.651489,419.463531 625.430969,423.771423
	C625.279236,426.734894 624.240906,428.063232 621.305359,428.020691
	C616.975525,427.957977 612.644409,427.992615 608.314514,427.935028
	C605.041321,427.891479 603.549622,429.352753 603.351624,432.720276
	C602.653870,444.587189 602.661621,444.668884 614.609863,444.672211
	C619.931213,444.673706 625.252625,444.672485 630.742249,444.672485
	C631.949097,447.288818 631.192871,449.977631 631.356750,452.556091
	C631.507507,454.928284 629.626648,455.132904 627.917053,455.136658
	C616.757507,455.161102 605.597656,455.105560 594.438171,455.141602
	C591.104370,455.152374 590.741882,453.040405 590.742798,450.481659
	C590.746704,440.154419 590.726685,429.827179 590.715393,418.999939
z"/>
<path fill="#f7a400" opacity="1.000000" stroke="none"
	d="
M366.111450,417.399658
	C361.137054,401.221069 369.588440,390.130646 386.047638,390.510681
	C391.620636,390.639374 396.933441,391.210541 401.656616,394.668762
	C404.913391,397.053314 403.759186,399.359924 402.220215,401.931396
	C400.677765,404.508698 398.846680,406.080963 395.721954,404.279968
	C391.911102,402.083527 387.963135,400.532196 383.391785,401.289124
	C380.085815,401.836487 377.834717,403.492859 377.071655,406.780579
	C376.298828,410.110291 378.218719,412.394287 380.858856,413.631256
	C384.906708,415.527740 389.242493,416.798462 393.395935,418.482971
	C403.551086,422.601715 406.983643,428.716339 405.164764,439.218048
	C403.609039,448.200287 396.002594,454.724426 386.778015,455.371033
	C378.882446,455.924469 371.630249,454.600800 365.006805,449.958862
	C361.954254,447.819550 361.813843,445.909454 363.759949,442.968048
	C365.731171,439.988708 367.721008,437.900055 371.424377,440.141022
	C375.413757,442.555054 379.263641,445.126343 384.316254,444.762299
	C389.326172,444.401367 392.709320,442.103912 393.304504,437.771973
	C393.951508,433.063049 390.767242,430.858948 387.018127,429.388611
	C382.537811,427.631500 377.907013,426.250214 373.461151,424.415802
	C370.332611,423.124878 367.824249,420.900360 366.111450,417.399658
z"/>
<path fill="#f7a400" opacity="1.000000" stroke="none"
	d="
M410.408386,391.112671
	C425.819580,390.880005 440.789948,390.858643 455.759064,390.710327
	C459.120026,390.677032 459.715790,392.510040 459.338348,395.178986
	C458.991028,397.634796 460.770966,401.343842 455.927795,401.346252
	C452.267670,401.348083 448.606079,401.438293 444.947937,401.359131
	C442.267914,401.301147 440.870819,402.423981 440.870514,405.143951
	C440.870209,407.798004 440.903625,410.452209 440.885864,413.106079
	C440.800110,425.909119 440.656891,438.712067 440.649658,451.515106
	C440.648346,453.847565 439.682159,454.919983 437.515076,455.097504
	C436.357361,455.192322 435.174194,455.037537 434.026581,455.184174
	C429.323730,455.784973 427.544678,453.953461 427.639832,449.061279
	C427.901794,435.590027 427.739258,422.110229 427.718109,408.633881
	C427.708099,402.254486 426.969910,401.529297 420.549225,401.390564
	C418.886169,401.354614 417.221802,401.383423 415.558105,401.372833
	C408.368530,401.327057 406.737366,398.380371 410.408386,391.112671
z"/>
<path fill="#000000" opacity="1.000000" stroke="none"
	d="
M350.851868,491.999786
	C350.976196,424.554840 351.098145,357.609833 351.273438,290.664978
	C351.274780,290.156738 352.004700,289.650421 352.481354,289.030029
	C356.095917,290.433441 354.957306,293.503540 354.961823,295.873962
	C355.050934,342.510040 355.058838,389.146271 355.075317,435.782471
	C355.083649,459.433380 355.094452,483.084290 355.045807,506.735107
	C355.041351,508.912292 355.798920,511.485199 351.755127,513.586487
	C350.011414,506.293213 351.278229,499.305237 350.851868,491.999786
z"/>
<path fill="#f7a400" opacity="1.000000" stroke="none"
	d="
M220.736725,475.062378
	C220.608200,472.135315 222.513184,471.783661 224.282684,471.236908
	C251.233658,462.908905 277.937714,462.432983 304.255127,473.779205
	C305.674164,474.391022 307.580536,474.543945 308.035583,477.176849
	C303.496948,476.306946 299.184174,475.480316 294.871399,474.653687
	C275.041656,470.852783 255.816345,473.408325 237.014771,480.221802
	C233.575241,481.468262 230.132477,482.768463 226.850739,484.370636
	C223.379913,486.065063 221.924103,485.097443 221.670151,481.390411
	C221.534607,479.412109 221.065933,477.456635 220.736725,475.062378
z"/>
<path fill="#e85400" opacity="1.000000" stroke="none"
	d="
M252.126144,490.190796
	C241.945953,494.377380 232.896896,499.909851 223.958206,505.690979
	C221.246262,502.280792 220.545654,498.807159 219.269333,495.600403
	C218.359985,493.315643 219.703110,492.219574 221.504684,491.333923
	C239.198151,482.635437 257.708527,476.866486 277.579498,476.913330
	C286.095947,476.933411 294.581726,478.266571 302.696594,481.799866
	C285.333099,481.230438 268.502563,483.228516 252.126144,490.190796
z"/>
<path fill="#e85400" opacity="1.000000" stroke="none"
	d="
M519.400452,483.415588
	C511.165283,488.785431 502.489014,485.613770 501.715454,477.246735
	C501.294891,472.697540 502.185425,468.446259 506.708893,466.211273
	C510.810516,464.184662 515.063110,463.927338 518.886780,467.051941
	C522.925171,470.351898 523.073547,474.750763 521.893616,479.311462
	C521.537537,480.687653 520.447998,481.874115 519.400452,483.415588
M515.057190,481.614868
	C515.826538,480.776947 516.788757,480.047180 517.330383,479.081512
	C519.212341,475.726105 518.487793,472.623535 515.787964,470.100586
	C513.520569,467.981689 510.953033,468.129028 508.603180,470.095795
	C505.810577,472.433136 505.350372,475.481415 506.760040,478.638245
	C508.219025,481.905487 510.693848,483.505157 515.057190,481.614868
z"/>
<path fill="#e85400" opacity="1.000000" stroke="none"
	d="
M437.799957,470.281006
	C437.974518,468.113647 437.118774,465.829193 439.539917,465.203857
	C441.443420,464.712189 442.426361,466.504547 443.457214,467.755676
	C445.871368,470.685638 448.222229,473.667755 450.805359,476.886230
	C453.119843,473.083771 449.741913,468.150848 454.474945,464.197296
	C455.849091,472.146820 455.523682,478.968353 454.790009,487.305878
	C449.132202,483.353027 446.784637,478.029877 442.660400,473.997467
	C441.313263,477.182709 441.501495,480.098694 441.668335,483.033295
	C441.735199,484.209412 441.530334,485.579956 440.103302,485.765167
	C438.340820,485.993927 437.862579,484.595917 437.841522,483.184845
	C437.779602,479.037720 437.812958,474.889191 437.799957,470.281006
z"/>
<path fill="#e85400" opacity="1.000000" stroke="none"
	d="
M609.388611,465.069336
	C615.531799,467.363831 616.712830,470.252228 613.496399,475.238831
	C612.267334,477.144257 612.383362,478.484070 613.539612,480.152252
	C614.640198,481.740082 616.123230,483.153320 616.453857,485.615631
	C610.156433,487.405853 610.479614,479.691711 606.270325,478.874390
	C604.640747,480.076630 605.509705,481.914276 605.175232,483.436279
	C604.912354,484.632751 604.608826,485.769562 603.172119,485.882019
	C601.742432,485.993988 600.939453,485.030945 600.915466,483.776459
	C600.810913,478.317841 600.172485,472.751465 601.018677,467.429413
	C601.716492,463.040894 606.109253,465.322632 609.388611,465.069336
M605.995911,474.116058
	C608.792847,474.814056 610.565308,473.766388 610.531555,470.860107
	C610.511230,469.109772 608.921448,468.376831 607.312805,468.816345
	C604.664795,469.539764 605.177673,471.650116 605.995911,474.116058
z"/>
<path fill="#e85400" opacity="1.000000" stroke="none"
	d="
M384.048309,464.977570
	C385.706879,465.015839 386.688995,465.633087 387.167023,466.784607
	C389.692322,472.867554 392.166779,478.971649 394.585541,484.889069
	C392.656158,486.664948 391.407440,486.093689 390.296112,484.847931
	C384.983765,478.892700 383.654724,478.874512 378.983521,484.778137
	C378.044708,485.964569 376.972687,486.441437 374.699219,485.105499
	C377.366730,478.379974 379.022247,471.113220 384.048309,464.977570
z"/>
<path fill="#e85400" opacity="1.000000" stroke="none"
	d="
M496.976501,465.736053
	C498.657471,466.581238 499.675293,467.631897 498.772949,469.061798
	C497.699615,470.762756 496.142883,469.841492 494.775238,469.243500
	C490.996216,467.591095 488.289368,469.240753 486.325043,472.286987
	C484.237061,475.524994 485.680573,478.449951 487.987488,480.845947
	C489.862061,482.792938 492.485443,483.647919 494.728577,481.719208
	C497.854614,479.031372 492.919830,478.777954 492.888763,476.658234
	C494.496429,474.867004 496.563477,474.778076 498.634308,475.701385
	C500.795349,476.664948 500.082245,478.823242 500.176453,480.566101
	C500.306396,482.970459 499.377808,484.627045 496.935516,485.540222
	C492.611725,487.156860 486.784729,486.169769 483.901031,483.085297
	C481.394318,480.404114 480.612793,473.547150 482.582153,469.847839
	C484.961609,465.378174 489.159821,464.622986 493.696381,464.866455
	C494.670715,464.918732 495.624969,465.345245 496.976501,465.736053
z"/>
<path fill="#e85400" opacity="1.000000" stroke="none"
	d="
M394.573608,472.817413
	C397.001556,466.084076 403.269928,463.159485 409.381195,465.528748
	C410.978210,466.147888 412.891052,466.802490 411.951477,468.941803
	C411.133179,470.805176 409.409821,469.919922 408.041138,469.304108
	C404.380096,467.656921 401.490723,468.749176 399.501587,471.997375
	C397.433533,475.374390 398.666168,478.400208 401.129761,481.052002
	C402.196686,482.200409 403.593109,482.718628 405.187836,482.631775
	C406.577087,482.556061 407.827972,482.241791 408.474121,480.823822
	C409.597076,478.359589 405.745911,478.620850 406.158142,476.164459
	C408.643066,475.814240 411.731506,473.933990 412.960571,477.765564
	C413.984650,480.958099 413.950500,484.231720 409.396179,485.646454
	C400.281494,488.477692 393.412445,482.894714 394.573608,472.817413
z"/>
<path fill="#e85400" opacity="1.000000" stroke="none"
	d="
M581.258423,474.048676
	C581.252808,477.033325 581.306030,479.534546 581.217041,482.030731
	C581.159973,483.633881 581.425781,485.751617 579.069519,485.842834
	C576.659363,485.936096 576.636536,483.798523 576.785522,482.212769
	C577.167175,478.150055 575.331116,476.934906 571.510437,477.155121
	C568.594971,477.323120 567.241577,478.364929 567.299988,481.362244
	C567.332520,483.032318 567.859375,485.122070 565.484497,485.909302
	C562.876343,484.712555 563.772095,482.439178 563.708069,480.611816
	C563.568176,476.617767 563.619202,472.615845 563.651794,468.617584
	C563.663269,467.209930 563.131409,465.257050 565.368347,465.143768
	C567.638123,465.028809 567.364685,467.015991 567.337830,468.418396
	C567.277588,471.571686 567.588623,473.979523 571.820740,473.794769
	C575.016296,473.655243 576.950562,473.002838 576.734741,469.308228
	C576.635315,467.607513 576.300354,465.107178 579.055359,465.258453
	C581.634094,465.400055 581.127075,467.817871 581.233521,469.565460
	C581.314453,470.893555 581.254333,472.230255 581.258423,474.048676
z"/>
<path fill="#e85400" opacity="1.000000" stroke="none"
	d="
M536.235779,464.928162
	C538.780823,466.017731 539.174988,467.191101 536.703918,468.200714
	C535.833374,468.556427 534.727173,468.302460 533.736511,468.404083
	C531.837341,468.598969 529.411377,468.095856 529.408691,471.176636
	C529.406311,473.994476 531.583191,473.540222 533.356750,473.695251
	C534.624084,473.806030 536.107666,473.532654 536.689270,475.295624
	C536.100403,477.844269 533.914673,477.102814 532.265381,477.303253
	C530.542114,477.512756 529.406921,478.147400 529.441223,480.054871
	C529.475952,481.989441 530.719788,482.461487 532.395508,482.687225
	C534.376221,482.953979 536.774170,481.784882 538.663025,484.734772
	C534.921082,487.543549 530.722900,486.445862 527.018921,485.893677
	C523.996399,485.443024 525.138611,482.140228 524.982727,479.952087
	C524.876709,478.463135 525.010925,476.958557 524.993835,475.461517
	C524.870300,464.669586 524.866699,464.669617 536.235779,464.928162
z"/>
<path fill="#e85400" opacity="1.000000" stroke="none"
	d="
M468.148010,482.686981
	C469.994324,482.791260 471.575806,482.440887 472.989044,484.572113
	C469.414856,487.694244 465.214417,486.229279 461.527954,485.994049
	C458.195129,485.781403 459.222931,482.493835 459.138947,480.371277
	C458.988678,476.573212 459.187500,472.762787 459.141693,468.958710
	C459.106445,466.031403 460.483765,464.464661 463.360107,464.841827
	C466.454376,465.247650 470.239105,463.211121 472.709656,466.946014
	C470.984680,469.112610 468.803894,468.063354 466.973267,468.462006
	C465.343689,468.816864 463.547791,468.910767 463.571411,471.255280
	C463.596191,473.714233 465.374573,473.601227 467.072144,473.691559
	C468.351440,473.759613 469.777283,473.461548 470.718842,474.871216
	C470.860626,477.416443 468.878998,477.103638 467.318298,477.243225
	C465.497955,477.406036 463.416962,477.157013 463.445862,479.890472
	C463.477478,482.881958 465.745178,482.603333 468.148010,482.686981
z"/>
<path fill="#e85400" opacity="1.000000" stroke="none"
	d="
M594.317200,468.392487
	C589.407837,469.365479 587.911499,471.585052 590.645386,473.249786
	C592.250977,474.227478 594.768005,472.864380 595.899963,475.204193
	C595.459351,477.635651 593.485596,477.123474 591.972717,477.281769
	C590.196472,477.467651 589.192932,478.195740 589.272522,480.095032
	C589.353455,482.028992 590.556641,482.492279 592.244751,482.690399
	C594.229553,482.923248 596.622742,481.825287 598.485596,484.761658
	C594.706116,487.526978 590.487366,486.489960 586.779114,485.883026
	C583.430725,485.335022 584.891724,481.793854 584.738403,479.522156
	C584.515320,476.215363 584.833557,472.873901 584.651611,469.562012
	C584.464783,466.162720 585.799133,464.522430 589.240112,464.829437
	C592.094238,465.084106 595.172852,463.995026 597.748413,465.900787
	C597.908264,468.565186 596.078247,468.143280 594.317200,468.392487
z"/>
<path fill="#e85400" opacity="1.000000" stroke="none"
	d="
M550.365234,469.454407
	C548.378113,469.162292 546.256165,467.474152 545.441406,470.263062
	C544.780762,472.524445 547.062439,472.808380 548.488403,473.469147
	C553.113403,475.612366 554.796875,479.030334 553.018494,482.806793
	C551.502686,486.025543 546.076477,487.434967 542.430908,485.487122
	C541.128235,484.791107 539.504333,483.984985 540.417297,482.105927
	C541.187988,480.519714 542.620178,480.967072 543.861084,481.659241
	C545.808105,482.745239 547.998108,483.252319 548.977112,480.868103
	C550.122559,478.078339 547.405090,477.796631 545.623047,477.086304
	C541.087891,475.278625 539.399658,471.954346 541.102722,468.204834
	C542.554688,465.008087 547.730408,463.687897 551.153992,465.739319
	C553.628723,467.222198 554.092163,468.629791 550.365234,469.454407
z"/>
<path fill="#e85400" opacity="1.000000" stroke="none"
	d="
M618.989685,466.346619
	C623.506714,464.027954 627.686829,464.197327 632.177917,466.318207
	C630.363831,469.104736 628.178040,468.116547 626.354797,468.340302
	C624.472046,468.571381 622.530945,468.639191 622.598511,471.241180
	C622.659851,473.606964 624.451660,473.566315 626.161438,473.689148
	C627.560425,473.789673 629.266418,473.368347 629.864502,475.339233
	C629.490417,477.447540 627.780579,477.140747 626.369019,477.271118
	C624.514282,477.442413 622.470764,477.408630 622.527344,480.039124
	C622.592590,483.076996 624.985657,482.502655 626.903259,482.692413
	C628.590210,482.859344 630.625000,482.058777 632.036987,484.756989
	C628.312683,487.440796 624.121155,486.552826 620.404480,485.778107
	C617.466614,485.165710 618.778503,481.852600 618.711304,479.714203
	C618.576111,475.410675 618.763062,471.097015 618.989685,466.346619
z"/>
<path fill="#e85400" opacity="1.000000" stroke="none"
	d="
M371.129791,477.971954
	C371.107269,480.092407 371.166718,481.752533 371.033051,483.396973
	C370.919159,484.798645 370.353912,486.053894 368.657593,486.015137
	C366.846741,485.973724 366.654633,484.599304 366.648285,483.202179
	C366.637787,480.885864 366.735901,478.566589 366.648193,476.253815
	C366.561829,473.976929 367.088074,471.631958 366.165436,469.585205
	C364.933136,468.363892 363.470032,469.084320 362.239014,468.659088
	C361.379059,468.362030 360.794983,467.844910 360.744598,466.917877
	C360.694641,465.998474 361.143188,465.140686 362.040283,465.091949
	C367.013245,464.821991 372.045746,464.075043 377.542419,466.481171
	C371.911163,468.559235 369.888397,472.200653 371.129791,477.971954
z"/>
<path fill="#e85400" opacity="1.000000" stroke="none"
	d="
M426.088440,482.693756
	C429.325684,484.224945 428.231445,485.426239 426.035675,486.104218
	C418.835083,488.327515 415.697937,485.930725 415.690674,478.364380
	C415.687836,475.384125 415.609894,472.400574 415.728241,469.424957
	C415.794220,467.765991 415.103424,465.183990 417.889587,465.338257
	C420.322510,465.472900 419.999298,467.906250 420.066498,469.659821
	C420.161591,472.140045 420.299408,474.643372 420.075470,477.105591
	C419.685974,481.388275 421.274658,483.398407 426.088440,482.693756
z"/>
<path fill="#e85400" opacity="1.000000" stroke="none"
	d="
M434.280518,472.116913
	C434.256256,476.082458 434.262238,479.566040 434.199158,483.048370
	C434.174316,484.420044 433.945099,485.840240 432.134064,485.840790
	C430.411133,485.841278 429.911835,484.505981 429.884338,483.117126
	C429.792419,478.474854 429.762939,473.830048 429.806732,469.187103
	C429.823334,467.424957 429.571777,465.070618 432.279755,465.236603
	C434.591492,465.378326 434.146088,467.561615 434.265839,469.147247
	C434.328125,469.972015 434.280884,470.805115 434.280518,472.116913
z"/>
</svg>